<svg xmlns="http://www.w3.org/2000/svg" xmlns:xlink="http://www.w3.org/1999/xlink" width="500" zoomAndPan="magnify" viewBox="0 0 375 92.249997" height="123" preserveAspectRatio="xMidYMid meet" version="1.0"><defs><clipPath id="c268690326"><path d="M 5 2 L 364 2 L 364 91.507812 L 5 91.507812 Z M 5 2 " clip-rule="nonzero"/></clipPath><clipPath id="44aa875997"><path d="M 97 48 L 128 48 L 128 88.445312 L 97 88.445312 Z M 97 48 " clip-rule="nonzero"/></clipPath><clipPath id="1eef9b887c"><path d="M 167 50.375 L 287.621094 50.375 L 287.621094 67 L 167 67 Z M 167 50.375 " clip-rule="nonzero"/></clipPath><clipPath id="f97985a95c"><path d="M 166 21.242188 L 358.847656 21.242188 L 358.847656 50.578125 L 166 50.578125 Z M 166 21.242188 " clip-rule="nonzero"/></clipPath><clipPath id="1fddb7a017"><rect x="0" width="359" y="0" height="90"/></clipPath></defs><g clip-path="url(#c268690326)"><g transform="matrix(1, 0, 0, 1, 5, 2)"><g clip-path="url(#1fddb7a017)"><path fill="#004f7c" d="M 58.316406 3.117188 C 66.675781 0.625 75.742188 0.566406 84.136719 2.945312 C 87.882812 3.992188 91.476562 5.554688 94.832031 7.515625 C 94.863281 12.410156 94.832031 17.304688 94.847656 22.203125 C 94.882812 22.695312 94.722656 23.21875 94.316406 23.527344 C 93.496094 24.191406 91.992188 23.804688 91.820312 22.6875 C 91.289062 20.003906 90.25 17.40625 88.640625 15.1875 C 87.113281 13.019531 85.121094 11.195312 82.878906 9.785156 C 80.113281 8.164062 77.035156 7.050781 73.855469 6.601562 C 69.1875 5.917969 64.332031 6.710938 60.085938 8.753906 C 56.097656 10.648438 52.640625 13.578125 49.941406 17.058594 C 46.550781 21.429688 44.320312 26.648438 43.265625 32.070312 C 43.125 32.753906 43.046875 33.449219 42.890625 34.128906 C 38.179688 35.109375 33.5625 36.46875 28.949219 37.832031 C 29.351562 31.464844 31.527344 25.25 35.058594 19.949219 C 40.464844 11.78125 48.964844 5.871094 58.316406 3.117188 Z M 58.316406 3.117188 " fill-opacity="1" fill-rule="nonzero"/><path fill="#004f7c" d="M 105.195312 2.273438 C 105.421875 1.59375 106.144531 1.175781 106.847656 1.234375 C 115.9375 1.242188 125.027344 1.226562 134.117188 1.242188 C 134.921875 1.226562 135.648438 1.933594 135.664062 2.738281 C 135.71875 3.484375 135.152344 4.210938 134.417969 4.347656 C 132.949219 4.511719 131.402344 4.132812 130 4.722656 C 128.304688 5.390625 127.128906 7.152344 127.167969 8.976562 C 127.167969 17.324219 127.167969 25.675781 127.167969 34.023438 C 122.675781 32.824219 118.136719 31.808594 113.597656 30.796875 C 113.589844 23.46875 113.601562 16.140625 113.59375 8.816406 C 113.574219 7.007812 112.347656 5.296875 110.652344 4.679688 C 109.289062 4.152344 107.800781 4.5 106.386719 4.355469 C 105.457031 4.222656 104.84375 3.144531 105.191406 2.273438 Z M 105.195312 2.273438 " fill-opacity="1" fill-rule="nonzero"/><path fill="#004f7c" d="M 37.621094 48.941406 C 39.472656 48.652344 41.292969 48.175781 43.148438 47.902344 C 44.226562 53.980469 46.78125 59.839844 50.777344 64.570312 C 54.378906 68.839844 59.226562 72.140625 64.675781 73.503906 C 70.21875 74.9375 76.25 74.21875 81.351562 71.636719 C 84.472656 70.109375 87.148438 67.703125 89.058594 64.804688 C 90.4375 62.71875 91.339844 60.339844 91.824219 57.894531 C 92.011719 56.742188 93.617188 56.382812 94.410156 57.148438 C 94.757812 57.457031 94.875 57.941406 94.847656 58.390625 C 94.832031 63.289062 94.863281 68.183594 94.832031 73.078125 C 89.554688 76.1875 83.648438 78.214844 77.574219 79 C 70.003906 79.992188 62.183594 79.101562 55.050781 76.371094 C 49.738281 74.34375 44.808594 71.292969 40.695312 67.363281 C 35.75 62.644531 31.988281 56.621094 30.1875 50.003906 C 32.667969 49.648438 35.15625 49.371094 37.621094 48.941406 Z M 37.621094 48.941406 " fill-opacity="1" fill-rule="nonzero"/><g clip-path="url(#44aa875997)"><path fill="#004f7c" d="M 113.601562 48.027344 C 115.238281 48.214844 116.445312 49.507812 118.050781 49.785156 C 121.054688 50.195312 124.007812 50.890625 127.011719 51.28125 C 126.601562 57.609375 125.429688 63.914062 123.242188 69.875 C 121.625 74.234375 119.449219 78.453125 116.390625 81.980469 C 114.328125 84.335938 111.820312 86.382812 108.875 87.507812 C 106.425781 88.457031 103.683594 88.664062 101.132812 88.027344 C 99.539062 87.640625 98.21875 86.375 97.675781 84.839844 C 96.847656 82.644531 97.804688 79.976562 99.800781 78.769531 C 100.753906 78.210938 101.882812 77.960938 102.980469 78.058594 C 103.835938 78.128906 104.554688 78.765625 104.847656 79.554688 C 105.144531 80.183594 105.035156 80.9375 105.394531 81.542969 C 105.964844 82.550781 107.226562 83.03125 108.339844 82.867188 C 109.515625 82.558594 110.265625 81.476562 110.804688 80.460938 C 111.984375 78.117188 112.484375 75.507812 112.886719 72.9375 C 113.484375 68.855469 113.648438 64.726562 113.597656 60.605469 C 113.601562 56.414062 113.585938 52.21875 113.601562 48.027344 Z M 113.601562 48.027344 " fill-opacity="1" fill-rule="nonzero"/></g><path fill="#727376" d="M 153.371094 13.691406 C 154.265625 13.023438 155.320312 12.484375 156.453125 12.445312 C 157.320312 13.117188 157.710938 14.234375 157.960938 15.269531 C 158.519531 18.046875 157.847656 20.894531 156.953125 23.527344 C 155.976562 26.285156 154.640625 28.90625 153.160156 31.425781 C 151.640625 33.890625 150.472656 36.59375 149.875 39.4375 C 149.378906 41.84375 149.363281 44.441406 150.363281 46.726562 C 150.859375 47.839844 151 49.140625 150.574219 50.296875 C 145.574219 48.378906 140.566406 46.46875 135.574219 44.53125 C 135.871094 43.847656 136.320312 43.230469 136.910156 42.765625 C 137.644531 42.140625 138.597656 41.878906 139.382812 41.332031 C 141.53125 39.917969 143.050781 37.742188 144.15625 35.457031 C 145.195312 33.292969 145.902344 30.972656 146.328125 28.609375 C 147.046875 25.160156 148.003906 21.722656 149.601562 18.566406 C 150.542969 16.734375 151.722656 14.960938 153.371094 13.691406 Z M 132.785156 51.65625 C 132.839844 51.390625 133.113281 51.269531 133.347656 51.410156 C 137.949219 53.167969 142.542969 54.949219 147.144531 56.703125 C 147.394531 56.800781 147.640625 56.921875 147.882812 57.046875 C 146.789062 60.207031 145.496094 63.300781 144.332031 66.433594 C 144.019531 67.441406 142.914062 68.070312 141.890625 67.945312 C 141.34375 67.863281 140.832031 67.644531 140.332031 67.417969 C 139.902344 67.226562 139.703125 66.683594 139.875 66.253906 C 140.296875 64.921875 140.800781 63.617188 141.214844 62.28125 C 140.625 63.519531 140.125 64.796875 139.558594 66.046875 C 139.386719 66.503906 138.863281 66.816406 138.382812 66.664062 C 137.792969 66.480469 137.21875 66.253906 136.652344 66.007812 C 136.246094 65.828125 136.007812 65.320312 136.167969 64.898438 C 136.414062 64.074219 136.75 63.28125 136.980469 62.449219 C 136.566406 63.25 136.269531 64.101562 135.875 64.910156 C 135.695312 65.285156 135.203125 65.417969 134.828125 65.304688 C 134.289062 65.132812 133.761719 64.925781 133.246094 64.703125 C 132.792969 64.527344 132.554688 63.96875 132.730469 63.519531 C 133.269531 61.855469 133.878906 60.21875 134.414062 58.550781 C 133.703125 60.109375 133.050781 61.695312 132.359375 63.261719 C 132.210938 63.652344 131.835938 63.972656 131.402344 63.945312 C 130.363281 63.800781 129.382812 63.015625 129.207031 61.949219 C 129.0625 61.308594 129.296875 60.679688 129.539062 60.097656 C 130.628906 57.289062 131.691406 54.46875 132.785156 51.65625 Z M 154.320312 15.5 C 153.183594 15.777344 152.8125 17.402344 153.714844 18.144531 C 154.546875 18.980469 156.136719 18.433594 156.292969 17.269531 C 156.542969 16.179688 155.375 15.132812 154.320312 15.5 Z M 134.097656 48.234375 C 134.5 47.25 134.804688 46.226562 135.285156 45.28125 C 137.511719 46.015625 139.671875 46.945312 141.875 47.757812 C 144.652344 48.847656 147.460938 49.859375 150.214844 50.996094 C 150.109375 51.613281 149.832031 52.179688 149.617188 52.761719 C 149.164062 53.914062 148.75 55.078125 148.273438 56.21875 C 147.910156 56.203125 147.566406 56.089844 147.238281 55.949219 C 142.597656 54.128906 137.90625 52.417969 133.285156 50.546875 C 133.441406 49.738281 133.832031 49.003906 134.097656 48.234375 Z M 134.097656 48.234375 " fill-opacity="1" fill-rule="nonzero"/><path fill="#727376" d="M 73.269531 31.472656 C 74.402344 31.136719 75.589844 31.105469 76.761719 31.027344 C 84.996094 30.550781 93.261719 31.054688 101.429688 32.164062 C 108.636719 33.167969 115.800781 34.582031 122.796875 36.601562 C 123.5 36.863281 124.332031 36.929688 124.875 37.5 C 124.148438 37.550781 123.464844 37.285156 122.773438 37.128906 C 117.617188 35.878906 112.425781 34.730469 107.175781 33.949219 C 106.226562 33.824219 105.277344 33.660156 104.316406 33.636719 C 104.304688 33.757812 104.273438 33.992188 104.261719 34.113281 C 104.3125 34.46875 104.742188 34.382812 105 34.433594 C 107.03125 34.554688 108.988281 35.191406 111.011719 35.375 C 111.515625 36.109375 112.585938 36.230469 113.300781 35.730469 C 117.433594 36.484375 121.484375 37.628906 125.570312 38.601562 C 125.773438 38.636719 125.980469 38.667969 126.191406 38.691406 C 126.226562 38.175781 125.714844 37.976562 125.40625 37.65625 C 127.414062 37.992188 129.25 38.933594 131.226562 39.378906 C 132.234375 39.691406 133.289062 39.835938 134.265625 40.222656 C 134.261719 40.34375 134.242188 40.59375 134.234375 40.714844 C 133.253906 40.605469 132.378906 40.0625 131.386719 40.007812 C 131.46875 40.203125 131.570312 40.414062 131.789062 40.496094 C 132.546875 40.894531 133.320312 41.265625 134.074219 41.679688 C 133.191406 44.679688 132.191406 47.65625 130.84375 50.488281 C 130.691406 50.8125 130.460938 51.210938 130.042969 51.195312 C 129.433594 51.144531 129.070312 50.53125 128.492188 50.398438 C 127.964844 50.28125 127.414062 50.308594 126.898438 50.144531 C 126.417969 49.992188 125.933594 49.820312 125.421875 49.828125 C 125.976562 50.871094 127.355469 50.910156 128.375 51.195312 C 128.074219 51.589844 127.585938 51.4375 127.167969 51.410156 C 124.496094 51.085938 121.867188 50.5 119.214844 50.066406 C 118.453125 49.964844 117.671875 49.898438 116.96875 49.5625 C 116.0625 49.214844 115.300781 48.546875 114.34375 48.328125 C 112.144531 47.757812 109.910156 47.359375 107.710938 46.816406 C 107.082031 46.695312 106.855469 46.035156 106.773438 45.480469 C 105.882812 45.691406 104.910156 45.617188 104.105469 45.160156 C 103.015625 44.511719 101.851562 44.007812 100.695312 43.492188 C 100.019531 43.136719 99.074219 43.492188 98.875 44.246094 C 98.960938 44.300781 99.132812 44.40625 99.214844 44.460938 C 101.4375 45.207031 103.683594 45.910156 105.957031 46.496094 C 105.886719 46.527344 105.75 46.59375 105.679688 46.625 C 103.242188 46.34375 100.839844 45.765625 98.386719 45.609375 C 97.59375 45.519531 96.777344 45.507812 96.03125 45.1875 C 96.230469 45.019531 96.46875 44.882812 96.601562 44.648438 C 95.890625 44.246094 95.105469 43.980469 94.300781 43.867188 C 92.667969 43.753906 91.074219 43.257812 89.429688 43.28125 C 86.792969 43.339844 84.152344 43.308594 81.515625 43.335938 C 80.800781 43.347656 80.085938 43.339844 79.378906 43.441406 C 79.472656 43.679688 79.6875 43.835938 79.949219 43.828125 C 80.910156 43.851562 81.871094 43.769531 82.835938 43.820312 C 83.109375 43.800781 83.351562 43.925781 83.550781 44.109375 C 82.804688 44.222656 82.046875 44.222656 81.316406 44.421875 C 79.148438 44.992188 76.890625 44.636719 74.703125 44.414062 C 73.789062 44.316406 72.902344 44.625 71.992188 44.652344 C 70.46875 44.714844 68.949219 44.597656 67.425781 44.574219 C 66.28125 44.558594 65.261719 45.125 64.171875 45.367188 C 62.339844 45.742188 60.46875 45.824219 58.605469 45.957031 C 55.527344 46.125 52.523438 46.855469 49.488281 47.332031 C 47.839844 47.546875 46.167969 47.574219 44.519531 47.804688 C 42.222656 48.082031 39.980469 48.671875 37.699219 49.042969 C 35.664062 49.394531 33.617188 49.664062 31.566406 49.925781 C 29.691406 50.101562 27.910156 50.933594 26.007812 50.871094 C 26.441406 50.449219 27.097656 50.457031 27.59375 50.140625 C 28.121094 49.785156 28.652344 49.402344 29.007812 48.863281 C 28.59375 48.898438 28.183594 48.996094 27.804688 49.167969 C 26.496094 49.742188 25.078125 49.984375 23.699219 50.324219 C 23.269531 50.433594 22.769531 50.632812 22.695312 51.128906 C 22.964844 51.183594 23.234375 51.238281 23.503906 51.300781 C 22.367188 52.136719 20.871094 52.132812 19.523438 52.269531 C 18.691406 52.292969 18.011719 52.957031 17.15625 52.828125 C 17.539062 52.605469 17.949219 52.433594 18.324219 52.195312 C 18.972656 51.765625 19.761719 51.664062 20.464844 51.363281 C 20.230469 50.875 19.621094 51.007812 19.1875 51.03125 C 17.820312 51.207031 16.5 51.703125 15.34375 52.441406 C 14.671875 52.867188 13.914062 53.117188 13.148438 53.300781 C 10.59375 53.917969 8.046875 54.566406 5.53125 55.316406 C 4.289062 55.644531 3.054688 56.074219 1.769531 56.207031 C 2.050781 55.75 2.421875 55.242188 2.988281 55.152344 C 4.085938 54.917969 4.882812 54.035156 5.945312 53.710938 C 6.363281 53.589844 6.710938 53.324219 7.027344 53.042969 C 6.894531 52.820312 6.757812 52.601562 6.621094 52.386719 C 6.871094 52.21875 7.140625 52.078125 7.421875 51.96875 C 10.203125 50.8125 13.054688 49.835938 15.933594 48.953125 C 16.695312 48.726562 17.359375 48.273438 18.011719 47.832031 C 16.621094 48.25 15.199219 48.582031 13.742188 48.609375 C 14.242188 47.488281 15.652344 47.824219 16.621094 47.597656 C 17.804688 47.109375 19.019531 46.691406 20.253906 46.34375 C 21 46.128906 21.882812 46.25 22.511719 45.714844 C 22.652344 45.480469 22.507812 45.214844 22.46875 44.976562 C 23.21875 44.613281 23.988281 44.28125 24.714844 43.867188 C 26.253906 43.121094 27.992188 43.773438 29.609375 43.484375 C 29.980469 43.433594 29.984375 43.019531 30.007812 42.738281 C 29.59375 42.671875 29.179688 42.699219 28.765625 42.675781 C 29.179688 42.261719 29.820312 42.253906 30.347656 42.0625 C 31.421875 41.683594 32.605469 41.472656 33.472656 40.675781 C 31.660156 40.90625 29.9375 41.734375 28.097656 41.75 C 28.367188 41.582031 28.667969 41.46875 28.972656 41.382812 C 31.183594 40.722656 33.386719 40.03125 35.59375 39.371094 C 37.234375 38.9375 38.878906 38.515625 40.5 38.019531 C 42.859375 37.425781 45.265625 37.039062 47.664062 36.65625 C 48.832031 36.375 49.980469 35.960938 51.050781 35.410156 C 49.839844 35.234375 48.617188 35.453125 47.4375 35.71875 C 47.101562 35.929688 46.828125 35.34375 47.144531 35.21875 C 47.714844 34.929688 48.382812 34.90625 49 34.777344 C 51.464844 34.304688 53.996094 34.78125 56.460938 34.308594 C 57.546875 34.078125 58.628906 34.476562 59.71875 34.378906 C 59.761719 34.265625 59.855469 34.039062 59.902344 33.925781 C 59.71875 33.71875 59.523438 33.523438 59.328125 33.335938 C 63.191406 32.332031 67.207031 31.9375 71.195312 32.164062 C 72.703125 32.261719 74.214844 32.398438 75.726562 32.492188 C 76.109375 32.488281 76.515625 32.554688 76.878906 32.398438 C 77.007812 32.191406 77 32 76.847656 31.816406 C 75.695312 31.472656 74.375 32.023438 73.269531 31.472656 Z M 69.757812 43.089844 C 70.757812 43.832031 72.03125 43.570312 73.179688 43.527344 C 74.804688 43.589844 76.425781 43.632812 78.046875 43.703125 C 78.097656 43.308594 77.792969 43.035156 77.414062 43.082031 C 75.546875 43.054688 73.6875 42.953125 71.824219 42.867188 C 71.132812 42.878906 70.382812 42.710938 69.757812 43.089844 Z M 63.703125 43.511719 C 62.289062 43.695312 60.863281 43.800781 59.476562 44.140625 C 59.242188 44.175781 59.042969 44.296875 58.875 44.460938 C 59.714844 44.589844 60.566406 44.457031 61.398438 44.324219 C 62.386719 44.15625 63.394531 44.238281 64.394531 44.207031 C 64.859375 44.183594 65.414062 44.222656 65.71875 43.792969 C 65.179688 43.21875 64.386719 43.445312 63.703125 43.511719 Z M 50.40625 45.070312 C 48.113281 45.589844 45.757812 45.859375 43.542969 46.671875 C 43.597656 46.84375 43.660156 47.019531 43.722656 47.191406 C 45.722656 46.828125 47.652344 46.125 49.675781 45.855469 C 51.039062 45.65625 52.441406 45.605469 53.753906 45.136719 C 52.644531 44.992188 51.511719 44.894531 50.40625 45.070312 Z M 107.992188 45.410156 C 107.835938 45.992188 108.519531 46.121094 108.925781 46.246094 C 110.1875 46.558594 111.457031 46.855469 112.75 46.988281 C 114.40625 47.339844 115.847656 48.367188 117.539062 48.605469 C 117.808594 48.675781 118.042969 48.527344 118.21875 48.328125 C 118.03125 48.148438 117.808594 48.015625 117.558594 47.957031 C 116.734375 47.6875 115.921875 47.375 115.140625 46.996094 C 113.882812 46.382812 112.480469 46.203125 111.113281 45.996094 C 110.066406 45.832031 109.050781 45.496094 107.992188 45.410156 Z M 83.945312 43.886719 C 85.140625 43.714844 86.355469 43.910156 87.5625 43.90625 C 89.75 43.882812 91.894531 44.328125 94.0625 44.578125 C 94.574219 44.714844 95.257812 44.601562 95.558594 45.144531 C 94.023438 45.246094 92.492188 44.988281 90.96875 44.839844 C 89.664062 44.765625 88.375 44.515625 87.066406 44.46875 C 86.089844 44.375 85.105469 44.453125 84.132812 44.3125 C 84.085938 44.207031 83.992188 43.992188 83.945312 43.886719 Z M 125.117188 36.484375 C 127.238281 36.820312 129.183594 37.816406 131.269531 38.292969 C 131.640625 38.386719 131.921875 38.652344 132.183594 38.917969 C 130.453125 38.59375 128.863281 37.753906 127.148438 37.363281 C 126.441406 37.175781 125.597656 37.105469 125.117188 36.484375 Z M 53.097656 33.398438 C 54.402344 32.890625 55.855469 32.808594 57.230469 33.015625 C 57.222656 33.105469 57.207031 33.289062 57.199219 33.378906 C 56.207031 33.296875 55.210938 33.320312 54.226562 33.449219 C 53.851562 33.511719 53.46875 33.46875 53.097656 33.398438 Z M 78.035156 31.933594 C 78.453125 31.644531 78.964844 31.734375 79.441406 31.734375 C 87.117188 31.855469 94.8125 32.21875 102.417969 33.296875 C 102.425781 33.410156 102.4375 33.640625 102.445312 33.753906 C 100.921875 33.785156 99.417969 33.457031 97.90625 33.335938 C 91.882812 32.753906 85.828125 32.605469 79.78125 32.542969 C 79.296875 32.527344 78.8125 32.558594 78.335938 32.492188 C 78.109375 32.410156 78.132812 32.109375 78.035156 31.933594 Z M 78.035156 31.933594 " fill-opacity="1" fill-rule="nonzero"/><g clip-path="url(#1eef9b887c)"><path fill="#727376" d="M 168.402344 52.53125 C 169.300781 52.6875 169.792969 53.023438 169.792969 54.300781 C 169.792969 55.511719 169.746094 57.324219 169.65625 58.824219 C 169.523438 60.953125 169.457031 62.902344 169.34375 64 C 169.210938 65.386719 169.074219 65.523438 167.933594 65.722656 L 167.527344 65.789062 C 167.328125 65.902344 167.328125 66.484375 167.617188 66.574219 C 168.515625 66.53125 169.367188 66.507812 170.082031 66.507812 C 170.933594 66.507812 171.898438 66.53125 172.726562 66.574219 C 172.90625 66.464844 172.953125 65.949219 172.773438 65.789062 L 171.898438 65.65625 C 171.003906 65.523438 170.867188 65.207031 170.867188 64.089844 C 170.867188 62.746094 170.890625 60.503906 170.914062 59.050781 C 170.933594 57.882812 170.957031 56.898438 171.046875 55.445312 L 171.09375 55.445312 C 172.347656 58.355469 175.105469 63.910156 175.976562 66.6875 C 176.113281 66.777344 176.359375 66.820312 176.558594 66.820312 C 176.738281 66.820312 176.898438 66.753906 177.007812 66.664062 C 178.488281 62.878906 180.28125 59.136719 181.9375 55.558594 L 181.984375 55.558594 L 181.984375 58.109375 L 182.027344 63.933594 C 182.027344 65.296875 182.027344 65.566406 180.996094 65.703125 L 180.324219 65.789062 C 180.101562 65.949219 180.125 66.464844 180.394531 66.574219 C 181.46875 66.53125 182.699219 66.507812 183.710938 66.507812 C 184.808594 66.507812 185.769531 66.53125 186.800781 66.574219 C 187.027344 66.484375 187.027344 65.96875 186.847656 65.789062 L 186.128906 65.703125 C 185.253906 65.589844 185.167969 65.050781 185.121094 64.023438 C 184.988281 61.199219 184.941406 58.78125 184.941406 54.167969 C 184.941406 52.980469 185.390625 52.710938 186.308594 52.554688 L 186.957031 52.441406 C 187.136719 52.21875 187.136719 51.789062 186.890625 51.652344 C 186.085938 51.699219 185.054688 51.714844 184.3125 51.714844 C 183.640625 51.714844 183.125 51.742188 182.09375 51.652344 C 181.601562 53.585938 181.042969 54.773438 179.964844 57.078125 L 178.824219 59.542969 C 178.21875 60.863281 177.859375 61.558594 177.570312 62.097656 C 177.253906 61.535156 176.449219 60.125 176.246094 59.675781 L 174.765625 56.519531 C 173.78125 54.414062 172.996094 53.046875 172.996094 51.652344 C 172.191406 51.71875 171.539062 51.714844 170.800781 51.714844 C 169.703125 51.714844 168.738281 51.699219 167.976562 51.652344 C 167.730469 51.71875 167.730469 52.261719 167.910156 52.441406 Z M 281.195312 63.902344 C 281.195312 65.46875 281.105469 65.671875 280.367188 65.738281 L 279.941406 65.785156 C 279.761719 65.917969 279.761719 66.4375 279.960938 66.570312 C 280.703125 66.527344 281.6875 66.511719 282.605469 66.511719 C 283.660156 66.511719 284.554688 66.527344 285.632812 66.570312 C 285.832031 66.4375 285.832031 65.917969 285.65625 65.785156 L 284.9375 65.714844 C 284.199219 65.648438 284.109375 65.46875 284.109375 63.902344 L 284.109375 60.496094 C 284.109375 59.648438 284.21875 59.15625 284.535156 59.15625 C 284.667969 59.15625 284.871094 59.179688 285.386719 59.605469 C 285.675781 59.875 285.945312 60.007812 286.257812 60.007812 C 286.976562 60.007812 287.695312 59.582031 287.695312 58.550781 C 287.695312 57.699219 287.066406 57.230469 286.460938 57.230469 C 285.519531 57.230469 284.871094 57.96875 284.265625 58.351562 C 284.085938 58.304688 284.039062 58.238281 284.039062 58.082031 C 284.039062 57.878906 284.085938 57.566406 284.128906 57.117188 C 284.039062 56.984375 283.90625 56.917969 283.726562 56.917969 C 283.03125 57.363281 281.484375 57.96875 280.453125 58.261719 C 280.296875 58.394531 280.296875 58.796875 280.453125 58.933594 L 280.769531 59.132812 C 281.195312 59.402344 281.195312 59.671875 281.195312 60.566406 Z M 278.238281 61.195312 C 278.929688 61.195312 279.042969 60.882812 279.042969 60.457031 C 279.042969 58.730469 277.789062 57.230469 275.457031 57.230469 C 272.65625 57.230469 270.617188 59.425781 270.617188 62.25 C 270.617188 64.691406 272.253906 66.820312 275.277344 66.820312 C 276.621094 66.820312 278.28125 66.171875 279.199219 64.265625 C 279.199219 63.886719 278.863281 63.707031 278.617188 63.75 C 278.011719 64.78125 277.160156 64.917969 276.535156 64.917969 C 274.449219 64.917969 273.375 63.28125 273.375 61.601562 C 273.375 61.242188 273.417969 61.195312 273.933594 61.195312 Z M 274.582031 60.210938 C 273.867188 60.210938 273.550781 60.1875 273.550781 59.875 C 273.550781 59.15625 274.359375 58.261719 275.300781 58.261719 C 276.0625 58.261719 276.488281 58.753906 276.488281 59.492188 C 276.488281 59.71875 276.445312 59.941406 276.332031 60.007812 C 276.085938 60.164062 275.726562 60.210938 275.414062 60.210938 Z M 269.628906 58.753906 C 269.855469 58.621094 269.921875 58.214844 269.921875 57.96875 C 269.921875 57.769531 269.855469 57.632812 269.742188 57.542969 L 267.75 57.542969 C 267.34375 57.542969 267.324219 57.519531 267.324219 57.09375 L 267.324219 55.414062 C 267.210938 55.234375 266.808594 55.214844 266.652344 55.304688 C 265.957031 56.289062 265.394531 56.757812 264.992188 57.050781 C 264.453125 57.410156 263.828125 57.8125 263.132812 58.058594 C 262.953125 58.214844 263.019531 58.664062 263.265625 58.753906 L 263.960938 58.753906 C 264.363281 58.753906 264.386719 58.796875 264.386719 59.269531 L 264.386719 64.265625 C 264.386719 65.746094 265.035156 66.820312 266.898438 66.820312 C 268.285156 66.820312 269.496094 66.195312 270.125 65.523438 C 270.167969 65.253906 270.035156 65.007812 269.808594 64.9375 C 269.542969 65.117188 269.183594 65.277344 268.867188 65.277344 C 267.300781 65.277344 267.300781 63.886719 267.300781 62.632812 L 267.300781 59.269531 C 267.300781 58.777344 267.324219 58.753906 267.613281 58.753906 Z M 258.3125 66.820312 C 260.421875 66.820312 262.125 65.8125 262.144531 63.820312 C 262.144531 62.363281 261.203125 61.421875 259.679688 60.679688 C 258.671875 60.1875 258.246094 59.761719 258.246094 59.246094 C 258.246094 58.640625 258.71875 58.261719 259.367188 58.261719 C 260.105469 58.261719 260.667969 58.730469 261.113281 60.03125 C 261.25 60.1875 261.808594 60.1875 261.898438 59.941406 C 261.898438 59.089844 261.789062 58.195312 261.5625 57.699219 C 261.316406 57.519531 260.308594 57.230469 259.164062 57.230469 C 257.238281 57.230469 255.601562 58.171875 255.601562 60.121094 C 255.601562 61.464844 256.566406 62.273438 257.910156 62.945312 C 258.671875 63.324219 259.390625 63.796875 259.390625 64.625 C 259.390625 65.386719 258.894531 65.789062 258.222656 65.789062 C 257.082031 65.789062 256.230469 64.46875 255.9375 63.550781 C 255.804688 63.347656 255.308594 63.371094 255.175781 63.59375 C 255.132812 64.601562 255.289062 65.679688 255.535156 66.128906 C 256.140625 66.597656 257.035156 66.820312 258.3125 66.820312 Z M 253.023438 59.785156 C 253.023438 58.777344 253.046875 57.789062 253.09375 57.117188 C 253.003906 56.984375 252.867188 56.917969 252.6875 56.917969 C 252.015625 57.320312 250.425781 57.925781 249.371094 58.214844 C 249.214844 58.351562 249.214844 58.753906 249.371094 58.886719 L 249.683594 59.089844 C 250.109375 59.359375 250.109375 59.628906 250.109375 60.523438 L 250.109375 63.90625 C 250.109375 65.476562 250.023438 65.679688 249.28125 65.746094 L 248.855469 65.789062 C 248.675781 65.925781 248.675781 66.441406 248.878906 66.574219 C 249.617188 66.53125 250.558594 66.507812 251.566406 66.507812 C 252.597656 66.507812 253.472656 66.53125 254.257812 66.574219 C 254.457031 66.441406 254.457031 65.925781 254.28125 65.789062 L 253.855469 65.746094 C 253.113281 65.679688 253.023438 65.476562 253.023438 63.90625 Z M 251.636719 52.1875 C 250.738281 52.1875 249.953125 52.835938 249.953125 53.824219 C 249.953125 54.742188 250.535156 55.414062 251.523438 55.414062 C 252.375 55.414062 253.203125 54.855469 253.203125 53.777344 C 253.203125 52.882812 252.578125 52.1875 251.636719 52.1875 Z M 247.152344 61.195312 C 247.847656 61.195312 247.960938 60.882812 247.960938 60.457031 C 247.960938 58.730469 246.703125 57.230469 244.375 57.230469 C 241.574219 57.230469 239.535156 59.425781 239.535156 62.25 C 239.535156 64.691406 241.167969 66.820312 244.195312 66.820312 C 245.539062 66.820312 247.199219 66.171875 248.117188 64.265625 C 248.117188 63.886719 247.78125 63.707031 247.535156 63.75 C 246.929688 64.78125 246.078125 64.917969 245.449219 64.917969 C 243.367188 64.917969 242.289062 63.28125 242.289062 61.601562 C 242.289062 61.242188 242.335938 61.195312 242.851562 61.195312 Z M 243.5 60.210938 C 242.78125 60.210938 242.46875 60.1875 242.46875 59.875 C 242.46875 59.15625 243.277344 58.261719 244.21875 58.261719 C 244.980469 58.261719 245.40625 58.753906 245.40625 59.492188 C 245.40625 59.71875 245.359375 59.941406 245.25 60.007812 C 245 60.164062 244.644531 60.210938 244.328125 60.210938 Z M 222.636719 63.90625 C 222.636719 65.476562 222.546875 65.65625 221.808594 65.746094 L 221.449219 65.789062 C 221.269531 65.925781 221.269531 66.441406 221.492188 66.574219 C 222.164062 66.53125 223.039062 66.507812 224.046875 66.507812 C 225.125 66.507812 225.839844 66.53125 226.535156 66.574219 C 226.738281 66.441406 226.738281 65.925781 226.558594 65.789062 L 226.199219 65.746094 C 225.640625 65.679688 225.550781 65.476562 225.550781 64.246094 L 225.550781 60.234375 C 225.550781 59.828125 225.59375 59.558594 225.730469 59.402344 C 225.90625 59.15625 226.355469 58.867188 226.9375 58.867188 C 228.015625 58.867188 228.460938 59.582031 228.460938 60.433594 L 228.460938 64.246094 C 228.460938 65.476562 228.371094 65.679688 227.859375 65.746094 L 227.5 65.789062 C 227.320312 65.925781 227.320312 66.441406 227.519531 66.574219 C 228.105469 66.53125 229 66.507812 229.898438 66.507812 C 230.90625 66.507812 231.621094 66.53125 232.316406 66.574219 C 232.519531 66.441406 232.519531 65.925781 232.339844 65.789062 L 231.980469 65.746094 C 231.464844 65.679688 231.375 65.476562 231.375 64.246094 L 231.375 60.097656 C 231.375 59.785156 231.441406 59.558594 231.53125 59.425781 C 231.691406 59.15625 232.160156 58.867188 232.789062 58.867188 C 233.820312 58.867188 234.289062 59.582031 234.289062 60.433594 L 234.289062 64.246094 C 234.289062 65.476562 234.199219 65.679688 233.640625 65.746094 L 233.28125 65.789062 C 233.101562 65.925781 233.101562 66.441406 233.304688 66.574219 C 233.910156 66.53125 234.851562 66.507812 235.746094 66.507812 C 236.820312 66.507812 237.671875 66.53125 238.367188 66.574219 C 238.570312 66.441406 238.570312 65.925781 238.390625 65.789062 L 238.03125 65.746094 C 237.292969 65.65625 237.203125 65.476562 237.203125 63.90625 L 237.203125 60.054688 C 237.203125 58.507812 236.261719 57.230469 234.492188 57.230469 C 233.28125 57.230469 232.429688 57.835938 231.9375 58.105469 C 231.511719 58.328125 231.308594 58.484375 231.21875 58.484375 C 231.085938 58.484375 230.949219 58.394531 230.679688 58.082031 C 230.167969 57.5 229.472656 57.230469 228.664062 57.230469 C 227.589844 57.230469 226.582031 57.835938 226.085938 58.125 C 225.953125 58.195312 225.730469 58.304688 225.660156 58.304688 C 225.59375 58.304688 225.550781 58.261719 225.550781 58.125 C 225.550781 57.96875 225.617188 57.429688 225.617188 57.117188 C 225.527344 56.984375 225.394531 56.917969 225.214844 56.917969 C 224.519531 57.320312 222.925781 57.925781 221.898438 58.214844 C 221.738281 58.351562 221.738281 58.753906 221.898438 58.886719 L 222.210938 59.089844 C 222.636719 59.359375 222.636719 59.628906 222.636719 60.523438 Z M 214.679688 63.902344 C 214.679688 65.46875 214.589844 65.671875 213.851562 65.738281 L 213.425781 65.785156 C 213.246094 65.917969 213.246094 66.4375 213.449219 66.570312 C 214.1875 66.527344 215.171875 66.511719 216.09375 66.511719 C 217.144531 66.511719 218.042969 66.527344 219.117188 66.570312 C 219.320312 66.4375 219.320312 65.917969 219.140625 65.785156 L 218.421875 65.714844 C 217.683594 65.648438 217.59375 65.46875 217.59375 63.902344 L 217.59375 60.5 C 217.59375 59.648438 217.707031 59.15625 218.019531 59.15625 C 218.152344 59.15625 218.355469 59.179688 218.871094 59.605469 C 219.164062 59.875 219.429688 60.007812 219.746094 60.007812 C 220.460938 60.007812 221.179688 59.582031 221.179688 58.550781 C 221.179688 57.699219 220.550781 57.230469 219.945312 57.230469 C 219.003906 57.230469 218.355469 57.96875 217.75 58.351562 C 217.570312 58.304688 217.527344 58.238281 217.527344 58.082031 C 217.527344 57.878906 217.570312 57.566406 217.617188 57.117188 C 217.527344 56.984375 217.390625 56.917969 217.210938 56.917969 C 216.519531 57.363281 214.972656 57.96875 213.941406 58.261719 C 213.785156 58.394531 213.785156 58.796875 213.941406 58.933594 L 214.253906 59.132812 C 214.679688 59.402344 214.679688 59.671875 214.679688 60.566406 Z M 211.722656 61.195312 C 212.417969 61.195312 212.527344 60.882812 212.527344 60.457031 C 212.527344 58.730469 211.273438 57.230469 208.941406 57.230469 C 206.140625 57.230469 204.101562 59.425781 204.101562 62.25 C 204.101562 64.691406 205.738281 66.820312 208.765625 66.820312 C 210.109375 66.820312 211.765625 66.171875 212.6875 64.265625 C 212.6875 63.886719 212.347656 63.707031 212.101562 63.75 C 211.496094 64.78125 210.644531 64.917969 210.019531 64.917969 C 207.933594 64.917969 206.859375 63.28125 206.859375 61.601562 C 206.859375 61.242188 206.902344 61.195312 207.417969 61.195312 Z M 208.070312 60.210938 C 207.351562 60.210938 207.039062 60.1875 207.039062 59.875 C 207.039062 59.15625 207.84375 58.261719 208.785156 58.261719 C 209.546875 58.261719 209.972656 58.753906 209.972656 59.492188 C 209.972656 59.71875 209.929688 59.941406 209.816406 60.007812 C 209.570312 60.164062 209.210938 60.210938 208.898438 60.210938 Z M 198.859375 63.90625 C 198.859375 65.476562 198.769531 65.679688 198.03125 65.746094 L 197.605469 65.789062 C 197.425781 65.925781 197.425781 66.441406 197.625 66.574219 C 198.410156 66.53125 199.351562 66.507812 200.316406 66.507812 C 201.324219 66.507812 202.265625 66.53125 203.003906 66.574219 C 203.207031 66.441406 203.207031 65.925781 203.027344 65.789062 L 202.644531 65.746094 C 201.863281 65.65625 201.773438 65.476562 201.773438 63.90625 L 201.773438 53.914062 C 201.773438 52.5 201.792969 51.558594 201.839844 50.640625 C 201.75 50.527344 201.59375 50.484375 201.457031 50.484375 C 200.335938 50.976562 198.992188 51.515625 198.03125 51.738281 C 197.871094 51.875 197.871094 52.277344 198.03125 52.410156 L 198.410156 52.636719 C 198.859375 52.90625 198.859375 53.152344 198.859375 54.046875 L 198.859375 63.910156 Z M 195.699219 60.480469 C 195.8125 58.171875 194.710938 57.230469 192.832031 57.230469 C 191.238281 57.230469 189.828125 57.992188 189.066406 58.597656 C 188.527344 59.023438 187.988281 59.738281 187.988281 60.324219 C 187.988281 60.636719 188.125 60.882812 188.503906 60.882812 C 188.910156 60.882812 189.78125 60.613281 190.117188 60.367188 C 190.320312 60.210938 190.453125 60.007812 190.5 59.648438 C 190.65625 58.6875 191.128906 58.371094 191.664062 58.371094 C 192.628906 58.371094 192.964844 59.449219 192.964844 60.300781 C 192.964844 60.570312 192.941406 60.816406 192.921875 61.0625 C 192.898438 61.242188 192.785156 61.398438 192.382812 61.511719 C 191.753906 61.6875 191.128906 61.867188 190.277344 62.136719 C 188.640625 62.628906 187.945312 63.324219 187.945312 64.46875 C 187.945312 66.035156 189.15625 66.820312 190.453125 66.820312 C 191.285156 66.820312 191.957031 66.394531 192.359375 66.105469 C 192.585938 65.949219 192.722656 65.859375 192.835938 65.859375 C 192.945312 65.859375 193.035156 65.902344 193.191406 66.035156 C 193.792969 66.550781 194.285156 66.820312 195.070312 66.820312 C 196.347656 66.820312 197.402344 65.96875 197.671875 65.609375 C 197.738281 65.410156 197.605469 65.140625 197.402344 65.097656 C 197.042969 65.296875 196.820312 65.363281 196.550781 65.363281 C 196.101562 65.363281 195.453125 64.960938 195.542969 63.4375 Z M 192.8125 64.265625 C 192.789062 64.960938 192.65625 65.363281 191.957031 65.363281 C 191.328125 65.363281 190.8125 64.738281 190.8125 64.019531 C 190.8125 62.96875 191.6875 62.585938 192.699219 62.453125 C 192.855469 62.429688 192.878906 62.496094 192.855469 62.855469 Z M 192.8125 64.265625 " fill-opacity="1" fill-rule="evenodd"/></g><g clip-path="url(#f97985a95c)"><path fill="#004f7c" d="M 177.765625 22.792969 C 174.691406 22.792969 171.679688 23.679688 169.582031 25.425781 C 167.542969 27.109375 166.003906 29.648438 166.003906 33.253906 C 166.003906 36.917969 167.628906 39.371094 169.757812 40.996094 C 171.855469 42.5625 174.8125 43.242188 177.707031 43.242188 C 180.011719 43.242188 182.109375 42.59375 183.707031 42.148438 C 184.117188 41.46875 184.621094 39.695312 184.828125 37.511719 C 184.652344 37.15625 183.941406 37.066406 183.707031 37.304688 C 182.90625 39.3125 181.253906 41.882812 177.675781 41.882812 C 174.132812 41.882812 170.734375 38.722656 170.734375 32.839844 C 170.734375 26.960938 174.25 24.152344 177.53125 24.152344 C 180.394531 24.152344 182.285156 25.632812 183.085938 28.378906 C 183.292969 28.644531 184.089844 28.527344 184.207031 28.171875 C 183.941406 26.457031 183.851562 24.09375 183.851562 23.5625 C 182.964844 23.503906 180.78125 22.792969 177.765625 22.792969 Z M 344.367188 39.34375 C 344.367188 41.410156 344.246094 41.648438 343.183594 41.765625 L 342.621094 41.824219 C 342.386719 42 342.386719 42.679688 342.652344 42.859375 C 343.6875 42.800781 344.898438 42.769531 346.257812 42.769531 C 347.617188 42.769531 348.859375 42.800781 349.804688 42.859375 C 350.070312 42.679688 350.070312 42 349.832031 41.824219 L 349.359375 41.765625 C 348.324219 41.648438 348.207031 41.410156 348.207031 39.34375 L 348.207031 37.628906 C 348.207031 37.066406 348.355469 36.917969 348.5625 36.917969 C 348.859375 36.917969 349.09375 37.039062 349.300781 37.363281 L 351.398438 40.554688 C 351.636719 40.910156 351.902344 41.382812 351.902344 41.5 C 351.902344 41.617188 351.722656 41.675781 351.429688 41.734375 L 351.042969 41.824219 C 350.808594 42.089844 350.867188 42.710938 351.164062 42.859375 C 351.988281 42.800781 353.054688 42.769531 354.796875 42.769531 C 356.511719 42.769531 357.605469 42.800781 358.519531 42.859375 C 358.816406 42.742188 358.875 42.03125 358.636719 41.824219 L 358.195312 41.734375 C 357.425781 41.589844 356.867188 41.441406 356.453125 41.054688 C 355.714844 40.375 353.113281 36.359375 352.582031 35.414062 C 352.433594 35.175781 352.375 35 352.375 34.910156 C 352.375 34.820312 352.402344 34.703125 352.550781 34.527344 C 352.964844 34.113281 353.40625 33.667969 354.53125 32.8125 C 355.328125 32.191406 355.949219 31.894531 356.511719 31.777344 L 357.457031 31.570312 C 357.664062 31.335938 357.632812 30.683594 357.339844 30.535156 C 355.59375 30.800781 353.140625 30.949219 351.753906 30.949219 L 351.042969 30.949219 C 350.75 31.070312 350.71875 31.71875 350.984375 31.984375 L 351.722656 32.101562 C 351.988281 32.132812 352.285156 32.25 352.285156 32.398438 C 352.285156 32.574219 352.136719 32.902344 351.574219 33.582031 L 350.335938 35.027344 C 349.742188 35.707031 349.121094 35.855469 348.621094 35.855469 C 348.296875 35.855469 348.207031 35.765625 348.207031 35.441406 L 348.207031 26.164062 C 348.207031 24.300781 348.238281 23.0625 348.296875 21.847656 C 348.175781 21.699219 347.96875 21.640625 347.792969 21.640625 C 346.285156 22.292969 344.484375 23 343.273438 23.296875 C 343.066406 23.472656 343.066406 24.007812 343.273438 24.183594 L 343.773438 24.480469 C 344.367188 24.832031 344.367188 25.160156 344.367188 26.339844 Z M 340.703125 35.765625 C 341.617188 35.765625 341.765625 35.351562 341.765625 34.792969 C 341.765625 32.515625 340.109375 30.535156 337.039062 30.535156 C 333.34375 30.535156 330.65625 33.433594 330.65625 37.15625 C 330.65625 40.375 332.8125 43.183594 336.800781 43.183594 C 338.574219 43.183594 340.761719 42.328125 341.972656 39.816406 C 341.972656 39.3125 341.53125 39.078125 341.203125 39.136719 C 340.40625 40.496094 339.285156 40.671875 338.457031 40.671875 C 335.707031 40.671875 334.289062 38.515625 334.289062 36.296875 C 334.289062 35.824219 334.347656 35.765625 335.027344 35.765625 Z M 335.886719 34.464844 C 334.941406 34.464844 334.527344 34.4375 334.527344 34.023438 C 334.527344 33.078125 335.589844 31.894531 336.832031 31.894531 C 337.835938 31.894531 338.398438 32.546875 338.398438 33.519531 C 338.398438 33.816406 338.339844 34.113281 338.191406 34.199219 C 337.867188 34.40625 337.390625 34.464844 336.980469 34.464844 Z M 323.976562 43.183594 C 326.753906 43.183594 329 41.855469 329.03125 39.222656 C 329.03125 37.304688 327.789062 36.0625 325.78125 35.085938 C 324.449219 34.4375 323.886719 33.875 323.886719 33.195312 C 323.886719 32.398438 324.507812 31.894531 325.367188 31.894531 C 326.339844 31.894531 327.078125 32.515625 327.671875 34.230469 C 327.847656 34.4375 328.585938 34.4375 328.707031 34.113281 C 328.707031 32.988281 328.558594 31.808594 328.261719 31.15625 C 327.9375 30.921875 326.605469 30.535156 325.101562 30.535156 C 322.558594 30.535156 320.402344 31.777344 320.402344 34.347656 C 320.402344 36.121094 321.671875 37.183594 323.445312 38.070312 C 324.449219 38.574219 325.394531 39.195312 325.394531 40.289062 C 325.394531 41.292969 324.746094 41.824219 323.859375 41.824219 C 322.351562 41.824219 321.230469 40.082031 320.84375 38.871094 C 320.667969 38.601562 320.015625 38.632812 319.839844 38.929688 C 319.78125 40.257812 319.988281 41.675781 320.3125 42.269531 C 321.109375 42.886719 322.292969 43.183594 323.976562 43.183594 Z M 317.210938 34.820312 C 317.359375 31.777344 315.910156 30.535156 313.429688 30.535156 C 311.328125 30.535156 309.46875 31.539062 308.464844 32.339844 C 307.753906 32.898438 307.046875 33.847656 307.046875 34.613281 C 307.046875 35.027344 307.222656 35.351562 307.726562 35.351562 C 308.257812 35.351562 309.410156 35 309.851562 34.671875 C 310.117188 34.464844 310.296875 34.199219 310.355469 33.726562 C 310.5625 32.457031 311.183594 32.042969 311.890625 32.042969 C 313.160156 32.042969 313.605469 33.460938 313.605469 34.585938 C 313.605469 34.9375 313.574219 35.265625 313.546875 35.589844 C 313.515625 35.824219 313.367188 36.03125 312.835938 36.179688 C 312.007812 36.417969 311.183594 36.652344 310.058594 37.007812 C 307.902344 37.65625 306.984375 38.574219 306.984375 40.082031 C 306.984375 42.148438 308.582031 43.183594 310.296875 43.183594 C 311.386719 43.183594 312.273438 42.621094 312.808594 42.238281 C 313.109375 42.03125 313.285156 41.914062 313.433594 41.914062 C 313.582031 41.914062 313.699219 41.972656 313.90625 42.148438 C 314.699219 42.828125 315.347656 43.183594 316.382812 43.183594 C 318.066406 43.183594 319.457031 42.058594 319.808594 41.585938 C 319.898438 41.320312 319.722656 40.96875 319.457031 40.90625 C 318.984375 41.175781 318.6875 41.261719 318.332031 41.261719 C 317.742188 41.261719 316.886719 40.730469 317.003906 38.722656 Z M 313.402344 39.816406 C 313.375 40.730469 313.195312 41.261719 312.277344 41.261719 C 311.449219 41.261719 310.769531 40.433594 310.769531 39.488281 C 310.769531 38.101562 311.921875 37.597656 313.253906 37.421875 C 313.460938 37.390625 313.492188 37.480469 313.460938 37.953125 Z M 299.390625 38.691406 C 299.390625 41.824219 299.183594 43.980469 299.125 44.484375 C 299.007812 45.519531 298.859375 46.90625 298.179688 46.90625 C 297.855469 46.90625 297.382812 46.550781 296.878906 46.167969 C 296.378906 45.785156 295.84375 45.429688 295.371094 45.429688 C 295.046875 45.429688 294.78125 45.578125 294.546875 45.8125 C 294.132812 46.226562 293.777344 46.964844 293.777344 47.527344 C 293.777344 48.53125 295.195312 48.738281 296.023438 48.710938 C 299.777344 48.5625 301.933594 46.582031 302.9375 43.980469 C 303.441406 42.652344 303.617188 40.613281 303.617188 38.277344 L 303.617188 27.582031 C 303.617188 24.804688 303.792969 24.625 305.152344 24.359375 L 305.921875 24.210938 C 306.160156 24.035156 306.160156 23.355469 305.921875 23.179688 C 304.386719 23.238281 302.90625 23.265625 301.488281 23.265625 C 300.101562 23.265625 298.625 23.238281 296.730469 23.179688 C 296.496094 23.355469 296.496094 24.035156 296.730469 24.210938 L 297.855469 24.390625 C 299.214844 24.597656 299.390625 24.804688 299.390625 27.582031 Z M 274.539062 39.34375 C 274.539062 41.410156 274.421875 41.648438 273.449219 41.765625 L 272.914062 41.824219 C 272.679688 42 272.679688 42.679688 272.945312 42.859375 C 273.949219 42.800781 275.191406 42.769531 276.402344 42.769531 C 277.820312 42.769531 278.765625 42.800781 279.683594 42.859375 C 279.949219 42.679688 279.949219 42 279.710938 41.824219 L 279.179688 41.734375 C 278.5 41.617188 278.382812 41.410156 278.382812 39.785156 L 278.382812 34.496094 C 278.382812 33.964844 278.441406 33.609375 278.617188 33.402344 C 278.855469 33.078125 279.445312 32.695312 280.273438 32.695312 C 281.722656 32.695312 282.34375 33.640625 282.34375 34.671875 L 282.34375 39.785156 C 282.34375 41.410156 282.222656 41.617188 281.542969 41.734375 L 281.011719 41.824219 C 280.777344 42 280.777344 42.679688 281.042969 42.859375 C 281.691406 42.800781 282.960938 42.769531 284.234375 42.769531 C 285.652344 42.769531 286.890625 42.800781 287.808594 42.859375 C 288.074219 42.679688 288.074219 42 287.839844 41.824219 L 287.363281 41.765625 C 286.300781 41.648438 286.183594 41.410156 286.183594 39.34375 L 286.183594 34.257812 C 286.183594 32.21875 284.941406 30.535156 282.460938 30.535156 C 280.984375 30.535156 279.710938 31.273438 279.0625 31.71875 C 278.765625 31.894531 278.617188 31.953125 278.589844 31.953125 C 278.441406 31.953125 278.382812 31.867188 278.382812 31.601562 L 278.382812 26.164062 C 278.382812 24.300781 278.410156 23.058594 278.472656 21.847656 C 278.351562 21.699219 278.144531 21.640625 277.96875 21.640625 C 276.402344 22.292969 274.6875 23 273.449219 23.296875 C 273.242188 23.472656 273.242188 24.007812 273.449219 24.183594 L 273.949219 24.480469 C 274.539062 24.832031 274.539062 25.160156 274.539062 26.339844 Z M 258.40625 46.871094 C 258.40625 48.9375 258.289062 49.203125 257.3125 49.289062 L 256.722656 49.347656 C 256.484375 49.527344 256.484375 50.210938 256.75 50.386719 C 257.816406 50.328125 258.96875 50.308594 260.269531 50.308594 C 261.65625 50.308594 262.839844 50.328125 264.316406 50.386719 C 264.582031 50.210938 264.582031 49.527344 264.347656 49.347656 L 263.339844 49.261719 C 262.367188 49.171875 262.25 48.9375 262.25 46.871094 L 262.25 43.945312 C 262.25 43.332031 262.425781 43.152344 262.691406 43.09375 C 262.957031 43.152344 263.609375 43.183594 264.019531 43.183594 C 268.335938 43.183594 271.261719 40.316406 271.261719 36.179688 C 271.261719 32.988281 269.371094 30.535156 266.238281 30.535156 C 264.671875 30.535156 263.371094 31.273438 262.484375 31.71875 C 262.367188 31.6875 262.25 31.511719 262.25 31.304688 C 262.25 31.007812 262.25 30.683594 262.308594 30.328125 C 262.1875 30.0625 261.894531 29.945312 261.6875 29.976562 C 260.859375 30.535156 258.644531 31.480469 257.433594 31.835938 C 257.226562 32.015625 257.226562 32.546875 257.433594 32.722656 L 257.84375 32.988281 C 258.40625 33.34375 258.40625 33.699219 258.40625 34.878906 Z M 262.25 34.703125 C 262.25 33.550781 262.425781 33.167969 262.574219 32.988281 C 262.808594 32.695312 263.3125 32.574219 263.8125 32.574219 C 265.765625 32.574219 267.183594 34.230469 267.183594 37.125 C 267.183594 39.875 266.179688 41.824219 264.347656 41.824219 C 263.875 41.824219 263.3125 41.558594 262.929688 41.144531 C 262.484375 40.703125 262.246094 40.082031 262.246094 39.429688 L 262.246094 34.703125 Z M 248.417969 43.183594 C 252.054688 43.183594 255.214844 41.144531 255.214844 36.832031 C 255.214844 32.664062 252.082031 30.535156 248.597656 30.535156 C 245.109375 30.535156 241.769531 32.871094 241.800781 37.097656 C 241.828125 41.175781 244.902344 43.183594 248.417969 43.183594 Z M 248.417969 31.894531 C 250.101562 31.894531 250.929688 34.378906 250.960938 37.242188 C 250.988281 39.902344 250.429688 41.824219 248.742188 41.824219 C 247.03125 41.824219 246.054688 39.546875 246.054688 36.445312 C 246.054688 33.226562 247.117188 31.894531 248.417969 31.894531 Z M 240.527344 32.546875 C 240.824219 32.367188 240.914062 31.835938 240.914062 31.511719 C 240.914062 31.246094 240.824219 31.066406 240.675781 30.949219 L 238.046875 30.949219 C 237.515625 30.949219 237.484375 30.921875 237.484375 30.359375 L 237.484375 28.144531 C 237.335938 27.90625 236.804688 27.875 236.597656 27.996094 C 235.683594 29.296875 234.945312 29.914062 234.414062 30.300781 C 233.703125 30.773438 232.875 31.304688 231.960938 31.628906 C 231.722656 31.835938 231.8125 32.425781 232.136719 32.546875 L 233.054688 32.546875 C 233.585938 32.546875 233.613281 32.605469 233.613281 33.226562 L 233.613281 39.816406 C 233.613281 41.765625 234.472656 43.183594 236.921875 43.183594 C 238.757812 43.183594 240.351562 42.355469 241.179688 41.46875 C 241.238281 41.113281 241.0625 40.789062 240.765625 40.699219 C 240.410156 40.9375 239.9375 41.144531 239.523438 41.144531 C 237.457031 41.144531 237.457031 39.3125 237.457031 37.65625 L 237.457031 33.226562 C 237.457031 32.574219 237.484375 32.546875 237.871094 32.546875 Z M 225.605469 43.183594 C 228.382812 43.183594 230.628906 41.855469 230.660156 39.222656 C 230.660156 37.304688 229.417969 36.0625 227.410156 35.085938 C 226.078125 34.4375 225.519531 33.875 225.519531 33.195312 C 225.519531 32.398438 226.136719 31.894531 226.996094 31.894531 C 227.972656 31.894531 228.710938 32.515625 229.300781 34.230469 C 229.476562 34.4375 230.214844 34.4375 230.335938 34.113281 C 230.335938 32.988281 230.1875 31.808594 229.890625 31.15625 C 229.566406 30.921875 228.238281 30.535156 226.730469 30.535156 C 224.1875 30.535156 222.03125 31.777344 222.03125 34.347656 C 222.03125 36.121094 223.300781 37.183594 225.074219 38.070312 C 226.078125 38.574219 227.023438 39.195312 227.023438 40.289062 C 227.023438 41.292969 226.375 41.824219 225.488281 41.824219 C 223.980469 41.824219 222.859375 40.082031 222.472656 38.867188 C 222.296875 38.601562 221.648438 38.632812 221.46875 38.929688 C 221.410156 40.257812 221.617188 41.675781 221.941406 42.265625 C 222.742188 42.886719 223.921875 43.183594 225.605469 43.183594 Z M 218.632812 33.90625 C 218.632812 32.574219 218.664062 31.273438 218.722656 30.386719 C 218.601562 30.210938 218.425781 30.121094 218.191406 30.121094 C 217.304688 30.65625 215.207031 31.453125 213.816406 31.835938 C 213.609375 32.011719 213.609375 32.546875 213.816406 32.722656 L 214.230469 32.988281 C 214.792969 33.34375 214.792969 33.699219 214.792969 34.878906 L 214.792969 39.34375 C 214.792969 41.410156 214.671875 41.675781 213.699219 41.765625 L 213.136719 41.824219 C 212.898438 42 212.898438 42.679688 213.167969 42.859375 C 214.140625 42.800781 215.382812 42.769531 216.710938 42.769531 C 218.070312 42.769531 219.222656 42.800781 220.257812 42.859375 C 220.523438 42.679688 220.523438 42 220.289062 41.824219 L 219.726562 41.765625 C 218.75 41.675781 218.632812 41.410156 218.632812 39.34375 Z M 216.800781 23.886719 C 215.617188 23.886719 214.585938 24.746094 214.585938 26.042969 C 214.585938 27.257812 215.351562 28.144531 216.652344 28.144531 C 217.777344 28.144531 218.871094 27.402344 218.871094 25.984375 C 218.871094 24.804688 218.042969 23.886719 216.800781 23.886719 Z M 203.828125 39.332031 C 203.828125 41.402344 203.710938 41.667969 202.734375 41.753906 L 202.175781 41.8125 C 201.9375 41.992188 201.9375 42.675781 202.203125 42.855469 C 203.179688 42.792969 204.480469 42.773438 205.691406 42.773438 C 207.078125 42.773438 208.261719 42.792969 209.679688 42.855469 C 209.945312 42.675781 209.945312 41.992188 209.710938 41.8125 L 208.761719 41.726562 C 207.789062 41.636719 207.671875 41.402344 207.671875 39.332031 L 207.671875 34.84375 C 207.671875 33.726562 207.816406 33.078125 208.230469 33.078125 C 208.410156 33.078125 208.675781 33.105469 209.355469 33.667969 C 209.738281 34.023438 210.09375 34.199219 210.507812 34.199219 C 211.453125 34.199219 212.398438 33.640625 212.398438 32.28125 C 212.398438 31.15625 211.570312 30.535156 210.773438 30.535156 C 209.53125 30.535156 208.675781 31.511719 207.878906 32.015625 C 207.640625 31.953125 207.582031 31.867188 207.582031 31.660156 C 207.582031 31.394531 207.640625 30.980469 207.699219 30.390625 C 207.582031 30.210938 207.402344 30.121094 207.167969 30.121094 C 206.25 30.714844 204.214844 31.511719 202.855469 31.894531 C 202.648438 32.074219 202.648438 32.605469 202.855469 32.78125 L 203.265625 33.046875 C 203.828125 33.402344 203.828125 33.757812 203.828125 34.933594 Z M 187.546875 39.34375 C 187.546875 41.410156 187.429688 41.648438 186.453125 41.765625 L 185.921875 41.824219 C 185.6875 42 185.6875 42.679688 185.953125 42.859375 C 186.957031 42.800781 188.195312 42.769531 189.410156 42.769531 C 190.828125 42.769531 191.773438 42.800781 192.6875 42.859375 C 192.953125 42.679688 192.953125 42 192.71875 41.824219 L 192.1875 41.734375 C 191.507812 41.617188 191.386719 41.410156 191.386719 39.785156 L 191.386719 34.496094 C 191.386719 33.964844 191.449219 33.609375 191.625 33.402344 C 191.859375 33.078125 192.453125 32.691406 193.28125 32.691406 C 194.726562 32.691406 195.347656 33.640625 195.347656 34.671875 L 195.347656 39.785156 C 195.347656 41.410156 195.230469 41.617188 194.550781 41.734375 L 194.019531 41.824219 C 193.78125 42 193.78125 42.679688 194.046875 42.859375 C 194.699219 42.800781 195.96875 42.769531 197.238281 42.769531 C 198.65625 42.769531 199.898438 42.800781 200.816406 42.859375 C 201.082031 42.679688 201.082031 42 200.84375 41.824219 L 200.371094 41.765625 C 199.308594 41.648438 199.191406 41.410156 199.191406 39.34375 L 199.191406 34.257812 C 199.191406 32.21875 197.949219 30.535156 195.464844 30.535156 C 193.988281 30.535156 192.71875 31.273438 192.066406 31.71875 C 191.773438 31.894531 191.625 31.953125 191.59375 31.953125 C 191.449219 31.953125 191.386719 31.867188 191.386719 31.601562 L 191.386719 26.164062 C 191.386719 24.300781 191.417969 23.058594 191.476562 21.847656 C 191.359375 21.699219 191.152344 21.640625 190.976562 21.640625 C 189.410156 22.292969 187.695312 23 186.453125 23.296875 C 186.246094 23.472656 186.246094 24.003906 186.453125 24.183594 L 186.957031 24.476562 C 187.546875 24.832031 187.546875 25.15625 187.546875 26.339844 Z M 187.546875 39.34375 " fill-opacity="1" fill-rule="evenodd"/></g></g></g></g></svg>