<svg xmlns="http://www.w3.org/2000/svg" viewBox="0 0 100 100" width="100" height="100">
  <rect width="100" height="100" fill="#004f7c"/>
  <g transform="translate(-15, 3) scale(0.72)">
    <path fill="#ffffff" d="M 58.316406 3.117188 C 66.675781 0.625 75.742188 0.566406 84.136719 2.945312 C 87.882812 3.992188 91.476562 5.554688 94.832031 7.515625 C 94.863281 12.410156 94.832031 17.304688 94.847656 22.203125 C 94.882812 22.695312 94.722656 23.21875 94.316406 23.527344 C 93.496094 24.191406 91.992188 23.804688 91.820312 22.6875 C 91.289062 20.003906 90.25 17.40625 88.640625 15.1875 C 87.113281 13.019531 85.121094 11.195312 82.878906 9.785156 C 80.113281 8.164062 77.035156 7.050781 73.855469 6.601562 C 69.1875 5.917969 64.332031 6.710938 60.085938 8.753906 C 56.097656 10.648438 52.640625 13.578125 49.941406 17.058594 C 46.550781 21.429688 44.320312 26.648438 43.265625 32.070312 C 43.125 32.753906 43.046875 33.449219 42.890625 34.128906 C 38.179688 35.109375 33.5625 36.46875 28.949219 37.832031 C 29.351562 31.464844 31.527344 25.25 35.058594 19.949219 C 40.464844 11.78125 48.964844 5.871094 58.316406 3.117188 Z M 58.316406 3.117188"/>
    <path fill="#ffffff" d="M 105.195312 2.273438 C 105.421875 1.59375 106.144531 1.175781 106.847656 1.234375 C 115.9375 1.242188 125.027344 1.226562 134.117188 1.242188 C 134.921875 1.226562 135.648438 1.933594 135.664062 2.738281 C 135.71875 3.484375 135.152344 4.210938 134.417969 4.347656 C 132.949219 4.511719 131.402344 4.132812 130 4.722656 C 128.304688 5.390625 127.128906 7.152344 127.167969 8.976562 C 127.167969 17.324219 127.167969 25.675781 127.167969 34.023438 C 122.675781 32.824219 118.136719 31.808594 113.597656 30.796875 C 113.589844 23.46875 113.601562 16.140625 113.59375 8.816406 C 113.574219 7.007812 112.347656 5.296875 110.652344 4.679688 C 109.289062 4.152344 107.800781 4.5 106.386719 4.355469 C 105.457031 4.222656 104.84375 3.144531 105.191406 2.273438 Z M 105.195312 2.273438"/>
    <path fill="#ffffff" d="M 37.621094 48.941406 C 39.472656 48.652344 41.292969 48.175781 43.148438 47.902344 C 44.226562 53.980469 46.78125 59.839844 50.777344 64.570312 C 54.378906 68.839844 59.226562 72.140625 64.675781 73.503906 C 70.21875 74.9375 76.25 74.21875 81.351562 71.636719 C 84.472656 70.109375 87.148438 67.703125 89.058594 64.804688 C 90.4375 62.71875 91.339844 60.339844 91.824219 57.894531 C 92.011719 56.742188 93.617188 56.382812 94.410156 57.148438 C 94.757812 57.457031 94.875 57.941406 94.847656 58.390625 C 94.832031 63.289062 94.863281 68.183594 94.832031 73.078125 C 89.554688 76.1875 83.648438 78.214844 77.574219 79 C 70.003906 79.992188 62.183594 79.101562 55.050781 76.371094 C 49.738281 74.34375 44.808594 71.292969 40.695312 67.363281 C 35.75 62.644531 31.988281 56.621094 30.1875 50.003906 C 32.667969 49.648438 35.15625 49.371094 37.621094 48.941406 Z M 37.621094 48.941406"/>
    <path fill="#ffffff" d="M 113.601562 48.027344 C 115.238281 48.214844 116.445312 49.507812 118.050781 49.785156 C 121.054688 50.195312 124.007812 50.890625 127.011719 51.28125 C 126.601562 57.609375 125.429688 63.914062 123.242188 69.875 C 121.625 74.234375 119.449219 78.453125 116.390625 81.980469 C 114.328125 84.335938 111.820312 86.382812 108.875 87.507812 C 106.425781 88.457031 103.683594 88.664062 101.132812 88.027344 C 99.539062 87.640625 98.21875 86.375 97.675781 84.839844 C 96.847656 82.644531 97.804688 79.976562 99.800781 78.769531 C 100.753906 78.210938 101.882812 77.960938 102.980469 78.058594 C 103.835938 78.128906 104.554688 78.765625 104.847656 79.554688 C 105.144531 80.183594 105.035156 80.9375 105.394531 81.542969 C 105.964844 82.550781 107.226562 83.03125 108.339844 82.867188 C 109.515625 82.558594 110.265625 81.476562 110.804688 80.460938 C 111.984375 78.117188 112.484375 75.507812 112.886719 72.9375 C 113.484375 68.855469 113.648438 64.726562 113.597656 60.605469 C 113.601562 56.414062 113.585938 52.21875 113.601562 48.027344 Z M 113.601562 48.027344"/>
  </g>
</svg>
